<svg width="73" height="14" viewBox="0 0 73 14" fill="none" xmlns="http://www.w3.org/2000/svg">
<g clip-path="url(#clip0_82_226)">
<path fill-rule="evenodd" clip-rule="evenodd" d="M47.8881 7.71084C47.9307 7.99084 47.9521 8.20622 48.016 8.42161C48.4852 10.4247 50.0421 11.7601 52.0682 11.9324C53.8596 12.0831 55.2672 11.3939 56.3122 9.90776C56.8241 9.19699 57.6559 9.06776 58.317 9.6493C58.7009 9.97238 58.7435 10.4031 58.445 10.8124C58.2743 11.0278 58.1251 11.2431 57.9544 11.4801C57.272 12.4278 56.3762 13.0739 55.2672 13.4616C53.4758 14.0862 51.6843 14.1724 49.9141 13.5047C47.5255 12.6216 46.1179 10.8555 45.7127 8.33546C45.4781 6.78469 45.6274 5.23392 46.3312 3.83392C47.3549 1.83084 48.9544 0.603149 51.1724 0.236995C52.644 7.18832e-05 54.0942 0.150841 55.4592 0.818533C57.3999 1.74469 58.5729 3.31699 59.0208 5.40623C59.1487 5.98776 59.1914 6.5693 59.2341 7.15084C59.2767 7.51699 59.1061 7.66776 58.7435 7.6893C58.5729 7.6893 58.4236 7.6893 58.253 7.6893C54.9473 7.6893 51.6416 7.6893 48.3573 7.6893C48.208 7.71084 48.1013 7.71084 47.8881 7.71084ZM56.9094 5.51392C56.6322 3.64007 54.3928 2.00315 52.3241 2.13238C50.1701 2.26161 48.0374 3.92007 47.9521 5.51392C50.9165 5.51392 53.9236 5.51392 56.9094 5.51392Z" fill="#E8E8E8"/>
<path fill-rule="evenodd" clip-rule="evenodd" d="M30.9546 7.64608C30.9759 7.83993 30.9972 7.96916 31.0185 8.11993C31.4238 10.3384 33.2152 11.8676 35.4332 11.9107C37.1181 11.9322 38.419 11.243 39.4001 9.86454C39.9119 9.13224 40.829 9.04608 41.4688 9.69224C41.7674 10.0153 41.8313 10.403 41.5328 10.7907C41.4048 10.9845 41.2768 11.1569 41.1275 11.3076C40.4024 12.3845 39.4001 13.0738 38.1844 13.483C36.3929 14.0861 34.6015 14.1292 32.874 13.4399C30.4001 12.4707 29.0138 10.5538 28.7152 7.883C28.5659 6.5907 28.6939 5.34147 29.2271 4.15685C30.2721 1.91685 31.9569 0.538388 34.4095 0.215311C35.7105 0.0430031 37.0114 0.150695 38.2057 0.64608C40.3811 1.5507 41.6394 3.25223 42.1299 5.55685C42.2152 6.07377 42.2792 6.63377 42.3005 7.1507C42.3219 7.58147 42.2365 7.66762 41.7887 7.66762C41.0209 7.66762 40.2105 7.66762 39.4214 7.66762C36.7768 7.66762 34.1323 7.66762 31.5304 7.66762C31.3384 7.64608 31.1678 7.64608 30.9546 7.64608ZM40.0185 5.44916C39.7413 3.59685 37.5659 2.02454 35.4332 2.06762C33.3645 2.1107 31.2105 3.7907 31.0399 5.44916C34.0257 5.44916 36.9901 5.44916 40.0185 5.44916Z" fill="#E8E8E8"/>
<path fill-rule="evenodd" clip-rule="evenodd" d="M68.0636 8.63728C68.2342 8.78805 68.3195 8.8742 68.4261 8.96036C69.5778 9.95113 70.7295 10.9419 71.8598 11.9327C71.9238 11.9973 72.0304 12.0834 72.0944 12.1481C72.5209 12.5788 72.5636 13.2034 72.1584 13.6342C71.7745 14.065 71.1773 14.1296 70.7295 13.7634C69.919 13.0957 69.1513 12.4065 68.3622 11.7388C67.2318 10.7696 66.1228 9.80036 64.9925 8.83113C64.9072 8.74497 64.7792 8.65882 64.6086 8.52959C64.6086 8.76651 64.5873 8.91728 64.5873 9.06805C64.5873 11.8034 64.5873 9.75728 64.5873 12.4927C64.5873 12.6219 64.5873 12.7511 64.5873 12.8804C64.5446 13.4834 64.0968 13.9142 63.4996 13.8711C62.9238 13.8496 62.5399 13.4188 62.5186 12.8157C62.5186 12.6865 62.5186 12.5573 62.5186 12.4281C62.5186 7.0219 62.5186 6.39728 62.5186 0.991127C62.5186 0.818819 62.5186 0.66805 62.5186 0.495743C62.5186 0.10805 62.5612 0.0434348 62.9238 0.0434348C63.4143 0.0218963 63.9048 0.0218963 64.3953 0.0218963C65.5683 0.0218963 66.784 0.0649733 67.957 0.000357877C69.9404 -0.085796 72.1584 1.52959 72.3716 3.87728C72.5636 5.98805 71.1347 7.99113 69.002 8.4219C68.7247 8.48651 68.4261 8.57267 68.0636 8.63728ZM64.4593 6.97882C64.5873 7.00036 64.6726 7.00036 64.7366 7.00036C65.7176 7.00036 66.72 7.00036 67.701 7.00036C67.9783 7.00036 68.2769 6.97882 68.5541 6.87113C69.4712 6.59113 70.1963 6.03113 70.4309 5.04036C70.8361 3.33882 69.5778 1.78805 67.8503 1.78805C66.8266 1.78805 65.8242 1.78805 64.7792 1.78805C64.6513 1.78805 64.5446 1.80959 64.4167 1.80959C64.4593 3.53267 64.4593 5.2342 64.4593 6.97882Z" fill="#E8E8E8"/>
<path fill-rule="evenodd" clip-rule="evenodd" d="M23.2768 7.6678C21.3147 7.6678 19.4166 7.6678 17.4759 7.6678C17.4759 7.84011 17.4545 7.99088 17.4545 8.14165C17.4545 9.64934 17.4545 11.1355 17.4545 12.6432C17.4545 12.837 17.4545 13.0309 17.4119 13.1817C17.2626 13.634 16.7934 13.914 16.3455 13.8924C15.855 13.8493 15.4498 13.4616 15.3858 12.9663C15.3645 12.837 15.3858 12.7293 15.3858 12.6001C15.3858 7.23704 15.3645 6.59088 15.3645 1.24934C15.3645 1.03396 15.3858 0.818575 15.4498 0.624729C15.6204 0.172422 16.0896 -0.0860398 16.5801 -0.0214244C17.028 0.0431909 17.4119 0.430883 17.4545 0.904729C17.4759 1.0555 17.4545 1.18473 17.4545 1.3355C17.4545 4.09242 17.4759 2.13242 17.4759 4.88934C17.4759 5.06165 17.4972 5.21242 17.4972 5.36319C17.8598 5.44934 22.8929 5.44934 23.2768 5.36319C23.2768 5.23396 23.2981 5.10473 23.2981 4.95396C23.2981 3.74781 23.2981 2.52011 23.2981 1.31396C23.2981 1.18473 23.2981 1.07704 23.2981 0.947806C23.3408 0.409345 23.746 0.000114035 24.2792 -0.0214244C24.8124 -0.0429629 25.3029 0.366268 25.3669 0.904729C25.3882 1.03396 25.3669 1.14165 25.3669 1.27088C25.3669 5.04011 25.3669 8.7878 25.3669 12.557C25.3669 12.6863 25.3669 12.794 25.3669 12.9232C25.3029 13.4616 24.8337 13.8924 24.3005 13.8709C23.7673 13.8493 23.3408 13.4186 23.2768 12.8801C23.2768 12.7509 23.2768 12.6432 23.2768 12.514C23.2768 11.0709 23.2768 9.58473 23.2768 8.14165C23.2768 8.01242 23.2768 7.86165 23.2768 7.6678Z" fill="#E8E8E8"/>
<path fill-rule="evenodd" clip-rule="evenodd" d="M6.30045 13.9785C4.91419 13.957 3.61325 13.6554 2.41893 12.9231C1.90708 12.6216 1.43789 12.2339 1.054 11.7816C0.86206 11.5447 0.627463 11.3077 0.542155 11.0062C0.414193 10.6185 0.392866 10.1877 0.755425 9.84313C1.16064 9.45544 1.71514 9.30467 2.26964 9.67082C2.80282 10.0585 3.05874 10.5539 3.50661 11.0062C4.14642 11.6524 4.97817 11.997 5.87391 12.1047C6.70566 12.1908 7.51609 12.1693 8.32651 11.8893C8.64642 11.7601 8.98765 11.6093 9.2649 11.3939C9.77675 10.8124 9.92604 9.9939 9.30756 9.4339C9.00898 9.17544 8.62509 8.98159 8.24121 8.80928C7.30282 8.40005 6.32178 8.12005 5.34073 7.86159C4.53031 7.66775 3.76253 7.40928 2.95211 7.17236C2.65353 7.08621 2.35495 6.9139 2.0777 6.76313C1.33125 6.3539 0.904714 5.70775 0.776752 4.88928C0.542155 3.18775 1.16064 1.65852 2.6322 0.904669C4.93552 -0.236869 7.32414 -0.129177 9.62746 1.18467C10.054 1.42159 10.4592 1.78775 10.8218 2.11082C11.099 2.34775 11.3123 2.69236 11.4189 3.05852C11.5256 3.51082 11.3123 3.98467 10.7578 4.1139C10.2886 4.22159 9.86206 4.07082 9.52083 3.70467C9.45685 3.64005 9.39287 3.5539 9.35021 3.48928C8.81704 2.67082 8.02794 2.21852 7.08955 2.04621C6.15116 1.8739 5.21277 1.89544 4.31704 2.26159C3.99713 2.39082 3.6559 2.56313 3.39997 2.80005C3.01609 3.31698 2.8668 4.00621 3.37865 4.65236C3.78386 5.04005 4.25306 5.25544 4.7649 5.36313C5.89524 5.64313 7.04689 5.94467 8.17723 6.22467C8.90234 6.41852 9.60614 6.65544 10.2673 7.04313C11.1204 7.49544 11.7388 8.16313 11.9521 9.13236C12.208 10.317 11.9521 11.437 11.035 12.2985C9.99002 13.2462 8.79571 13.7631 7.40945 13.9139C7.02557 13.957 6.64168 13.957 6.30045 13.9785Z" fill="#E8E8E8"/>
</g>
<defs>
<clipPath id="clip0_82_226">
<rect width="72" height="14" fill="white" transform="translate(0.435547)"/>
</clipPath>
</defs>
</svg>
