<svg width="85" height="84" viewBox="0 0 85 84" fill="none" xmlns="http://www.w3.org/2000/svg">
<g clip-path="url(#clip0_45_352)">
<path d="M3.20091 26.8305H0.680908C0.680908 12.6606 11.8109 1.96472 26.5697 1.96472C41.6897 1.96472 53.4497 12.8061 53.4497 26.6594H50.9297C50.9297 14.2521 40.2113 4.53173 26.5697 4.53173C13.2473 4.53173 3.20091 14.1238 3.20091 26.8305Z" fill="#484F59"/>
<path d="M20.2109 75.1416C20.4816 74.2351 21.0629 73.4577 21.8489 72.9511H11.2901C10.9147 72.946 10.5442 72.8634 10.201 72.7085C9.85775 72.5535 9.54887 72.3293 9.29298 72.0495C9.03709 71.7696 8.83949 71.4399 8.7121 71.0801C8.5847 70.7204 8.53015 70.3381 8.55174 69.9563V30.082H6.03174V69.9563C6.03174 73.0709 8.12334 75.4325 11.0717 75.4325H20.3117C20.3957 75.3042 20.1185 75.2614 20.2109 75.1416Z" fill="#484F59"/>
<path d="M47.1918 58.1737V30.082H44.6718V57.2496C45.1989 57.3369 45.7023 57.535 46.1502 57.8314C46.5113 57.8956 46.8619 58.0108 47.1918 58.1737Z" fill="#484F59"/>
<path d="M48.4517 31.7934H5.61168C5.27751 31.7934 4.95703 31.6581 4.72073 31.4174C4.48443 31.1767 4.35168 30.8503 4.35168 30.5099V26.2315C4.35168 25.8911 4.48443 25.5646 4.72073 25.3239C4.95703 25.0832 5.27751 24.948 5.61168 24.948H48.4517C48.7859 24.948 49.1063 25.0832 49.3426 25.3239C49.5789 25.5646 49.7117 25.8911 49.7117 26.2315V30.5099C49.7117 30.8503 49.5789 31.1767 49.3426 31.4174C49.1063 31.6581 48.7859 31.7934 48.4517 31.7934ZM6.87168 29.2263H47.1917V27.515H6.87168V29.2263Z" fill="#484F59"/>
<path d="M53.0717 26.6593H48.8717V29.2263H53.0717V26.6593Z" fill="#484F59"/>
<path d="M6.03179 26.6593H1.83179V29.2263H6.03179V26.6593Z" fill="#484F59"/>
<path d="M39.2705 6.9789C35.4684 4.56017 31.0507 3.33692 26.5697 3.4621C22.0495 3.33986 17.5922 4.56193 13.7429 6.9789" fill="white"/>
<path d="M13.743 9.94804C13.1001 9.95908 12.4714 9.75514 11.9532 9.36745C11.4349 8.97976 11.0558 8.42971 10.8737 7.80154C10.6917 7.17338 10.7168 6.50174 10.9453 5.88952C11.1737 5.27729 11.5929 4.75823 12.1386 4.41185C16.465 1.69079 21.4788 0.31951 26.5614 0.467212C31.6096 0.319695 36.5884 1.69179 40.875 4.41185C41.5277 4.84644 41.9843 5.52737 42.1442 6.30484C42.3041 7.08231 42.1542 7.89264 41.7276 8.55757C41.301 9.2225 40.6325 9.68756 39.8693 9.85043C39.106 10.0133 38.3105 9.86066 37.6578 9.42608C34.3306 7.33963 30.4749 6.29523 26.5698 6.42268C22.6235 6.29166 18.7256 7.33858 15.3558 9.43463C14.8795 9.76376 14.3185 9.94236 13.743 9.94804Z" fill="#484F59"/>
<path d="M55.6165 66.5749L60.5809 69.142C63.7393 70.7506 63.5041 72.7101 60.0517 73.4888L24.3937 81.5235C20.9413 82.3022 19.9585 80.6678 22.2097 77.8955L34.3813 62.8956C35.5852 61.5181 37.1902 60.569 38.9615 60.1872C40.7328 59.8054 42.5776 60.0109 44.2261 60.7735" stroke="#2BA84A" stroke-width="3" stroke-linejoin="round"/>
<path d="M39.2705 70.5295L51.0473 62.8969L55.3313 49.7966" stroke="#2BA84A" stroke-width="3" stroke-linejoin="round"/>
<path d="M82.3121 34.4459C82.5994 34.9151 82.7883 35.4396 82.8672 35.9867C82.946 36.5338 82.913 37.0916 82.7703 37.625C82.6275 38.1585 82.3781 38.6562 82.0376 39.0868C81.6971 39.5175 81.2729 39.8718 80.7917 40.1276L60.9929 51.0117C59.9972 51.5505 58.8386 51.6868 57.7485 51.3933C56.6585 51.0998 55.7173 50.3982 55.1129 49.4287C54.5422 48.4367 54.3551 47.2636 54.5881 46.1386C54.8211 45.0136 55.4575 44.0175 56.3729 43.3449L74.7857 30.082C75.2237 29.7596 75.7227 29.5336 76.251 29.4181C76.7793 29.3027 77.3254 29.3004 77.8547 29.4115C78.3839 29.5225 78.8847 29.7444 79.3252 30.0631C79.7658 30.3818 80.1364 30.7904 80.4137 31.2628L82.3121 34.4459Z" stroke="#2BA84A" stroke-width="3" stroke-linejoin="round"/>
</g>
<defs>
<clipPath id="clip0_45_352">
<rect width="84" height="83" fill="white" transform="translate(0.151733 0.133545)"/>
</clipPath>
</defs>
</svg>
