<svg width="84" height="84" viewBox="0 0 84 84" fill="none" xmlns="http://www.w3.org/2000/svg">
<g clip-path="url(#clip0_45_375)">
<path d="M13.7538 66.9485H1.71875V81.8885H82.2288V66.9485H70.1938" stroke="#2BA84A" stroke-width="3" stroke-linejoin="round"/>
<path d="M66.0436 66.9485H17.9036" stroke="#2BA84A" stroke-width="3" stroke-linejoin="round"/>
<path d="M10.0186 66.5336V75.6636" stroke="#2BA84A" stroke-width="3" stroke-linejoin="round"/>
<path d="M31.5986 66.5336V75.6636" stroke="#2BA84A" stroke-width="3" stroke-linejoin="round"/>
<path d="M51.5186 66.5336V75.6636" stroke="#2BA84A" stroke-width="3" stroke-linejoin="round"/>
<path d="M41.5586 66.5336V72.3436" stroke="#2BA84A" stroke-width="3" stroke-linejoin="round"/>
<path d="M63.1387 66.5336V72.3436" stroke="#2BA84A" stroke-width="3" stroke-linejoin="round"/>
<path d="M19.9785 66.5336V72.3436" stroke="#2BA84A" stroke-width="3" stroke-linejoin="round"/>
<path d="M73.0986 66.5336V75.6636" stroke="#2BA84A" stroke-width="3" stroke-linejoin="round"/>
<path d="M33.6736 42.0486H50.2736" stroke="#484F59" stroke-width="3" stroke-linejoin="round"/>
<path d="M64.7986 37.4835V45.7835" stroke="#484F59" stroke-width="3" stroke-linejoin="round"/>
<path d="M51.8506 27.8888L69.762 65.3965L69.1561 73.8542L59.47 53.4445L54.7805 50.2988L46.5967 33.6407L46.8706 33.3336" stroke="#484F59" stroke-width="3" stroke-linejoin="round"/>
<path d="M31.3579 27.8888L13.4465 65.3965L14.0524 73.8542L23.7468 53.4445L28.4363 50.2988L36.6201 33.6407L36.3379 33.3336" stroke="#484F59" stroke-width="3" stroke-linejoin="round"/>
<path d="M41.0109 33.9228C47.5201 33.9228 52.7969 28.6461 52.7969 22.1368C52.7969 15.6276 47.5201 10.3508 41.0109 10.3508C34.5016 10.3508 29.2249 15.6276 29.2249 22.1368C29.2249 28.6461 34.5016 33.9228 41.0109 33.9228Z" stroke="#484F59" stroke-width="3" stroke-linejoin="round"/>
<path d="M41.0109 28.5113C44.5314 28.5113 47.3853 25.6573 47.3853 22.1369C47.3853 18.6164 44.5314 15.7625 41.0109 15.7625C37.4904 15.7625 34.6365 18.6164 34.6365 22.1369C34.6365 25.6573 37.4904 28.5113 41.0109 28.5113Z" stroke="#484F59" stroke-width="3" stroke-linejoin="round"/>
<path d="M40.7285 10.0936V1.79358" stroke="#484F59" stroke-width="3" stroke-linejoin="round"/>
<path d="M43.2185 1.37854H38.2385V6.35854H43.2185V1.37854Z" stroke="#484F59" stroke-width="3" stroke-linejoin="round"/>
<path d="M57.7437 42.0486H65.2137" stroke="#484F59" stroke-width="3" stroke-linejoin="round"/>
</g>
<defs>
<clipPath id="clip0_45_375">
<rect width="83" height="83" fill="white" transform="translate(0.473633 0.133545)"/>
</clipPath>
</defs>
</svg>
