<svg width="94" height="95" viewBox="0 0 94 95" fill="none" xmlns="http://www.w3.org/2000/svg">
<path d="M51.9388 2.46778C46.5778 3.23888 41.6759 5.73575 37.7102 9.70137C34.0567 13.3549 31.67 17.7061 30.8438 22.2775C30.5685 23.8197 30.5685 27.1795 30.8438 28.7033C30.954 29.3459 31.4681 30.9799 31.9638 32.3201C33.3224 36.0104 33.4876 37.9748 32.588 39.7006C31.9821 40.894 30.4216 41.6834 29.1731 41.4447C26.1989 40.8756 23.904 37.7729 22.931 33.0178C22.6923 31.8795 22.6005 27.6568 22.7657 25.16C22.8575 23.7463 22.8392 23.7096 22.3435 23.269C21.756 22.7732 21.0032 22.6998 20.4341 23.1037C19.9935 23.4158 19.002 25.4354 17.9005 28.2443C16.5602 31.6959 15.6239 35.3127 14.963 39.4803C14.5591 41.9588 14.3938 48.4947 14.6692 51.1201C15.6423 60.5936 19.5895 68.7818 25.6665 73.9408C27.2454 75.2994 27.3005 75.3729 27.888 76.9334C30.9173 85.0115 38.0407 91.1803 46.5227 93.0529C48.377 93.4752 49.9559 93.3467 52.5079 92.5939C60.8798 90.1154 67.5993 83.3775 69.986 75.0607C70.3899 73.6654 70.5001 73.5002 71.8587 72.1232C75.3286 68.5982 77.752 64.4307 78.8903 60.0979C79.2208 58.8127 79.3677 57.6744 79.4411 55.765C79.6063 51.6342 79.1474 49.2842 76.8157 42.2893C75.0532 37.0018 74.7227 35.6982 74.5942 33.0912C74.4657 30.6494 74.7595 28.942 75.6774 26.7389C76.7974 24.0217 75.7509 23.2139 72.2259 24.1135C68.2786 25.1232 64.2763 28.1158 61.7243 31.9713L61.0634 32.9443L60.5126 31.2369C60.2188 30.3006 59.3927 28.4096 58.695 27.051C57.9974 25.6924 56.8224 23.4158 56.088 22.0022C54.4724 18.8443 53.9399 17.0268 53.9399 14.6584C53.9399 11.8494 54.8212 9.29747 56.9692 5.80919C58.1075 3.99161 58.2177 3.4959 57.6302 2.74317C57.263 2.26582 57.2263 2.26582 55.1149 2.28419C53.9399 2.30254 52.5079 2.37598 51.9388 2.46778ZM53.4259 5.5338C53.4259 5.60723 53.2974 5.8459 53.1505 6.06622C52.6181 6.81895 51.5532 9.51778 51.186 11.0783C50.672 13.1162 50.6536 15.9436 51.1126 17.9631C51.6083 20.1111 52.3059 21.7818 54.3438 25.5822C58.0157 32.4303 58.2544 33.2014 58.2911 37.7545C58.3095 40.7838 58.3462 41.0408 58.695 41.3897C59.2091 41.9037 60.2923 41.9037 60.8431 41.3897C61.0634 41.1877 61.3571 40.5635 61.504 40.0494C61.8895 38.5072 62.9177 36.0838 63.854 34.5232C64.8821 32.7975 67.2138 30.2455 68.6458 29.2725C69.8208 28.4647 71.9688 27.3447 71.9688 27.5467C71.9688 27.6018 71.8403 28.3729 71.6751 29.2357C71.4548 30.4291 71.3997 31.4022 71.4731 33.2014C71.6017 36.1389 72.0239 37.9014 73.9884 43.8498C75.9161 49.7065 76.1915 50.8631 76.32 53.8006C76.4485 56.5545 76.2282 58.2986 75.5122 60.4467C74.8696 62.3561 73.4192 65.1467 72.1892 66.8541L71.1427 68.2678L71.0509 59.235C70.9774 51.524 70.9224 50.1654 70.6837 49.9268C70.3716 49.633 49.5704 40.6736 48.836 40.5268C48.2485 40.3982 27.0435 49.4494 26.5845 50.0186C26.2724 50.3857 26.254 51.1568 26.254 60.2631L26.2356 70.1037L25.1157 68.9104C21.3337 64.8529 18.5981 58.2252 17.8087 51.1936C17.5517 48.7885 17.5884 44.015 17.9005 41.3346C18.1759 38.9479 18.8185 35.6799 19.3692 33.7522L19.6997 32.6506L20.0302 34.3029C21.1501 39.8842 24.4915 43.8315 28.604 44.5107C32.4227 45.1166 35.5989 42.6565 36.1681 38.6541C36.4802 36.3959 36.1497 34.7068 34.4423 29.8783C31.9087 22.7732 36.2966 13.2814 44.3563 8.45293C46.4493 7.2045 48.8727 6.28653 51.4981 5.7541C53.5177 5.3502 53.4259 5.3502 53.4259 5.5338ZM58.236 47.8705L67.838 52.0014L67.8931 60.5018C67.9481 70.1037 67.8196 71.6459 66.7364 74.9139C65.9653 77.2271 65.2493 78.6408 63.8356 80.7154C60.8614 85.085 56.0513 88.4447 50.8556 89.785C48.8177 90.3174 48.0466 90.2807 45.6231 89.5647C38.463 87.4717 32.6431 81.7436 30.4032 74.6201C29.4485 71.5908 29.3567 70.3607 29.4118 60.7588L29.4669 51.9647L39.0138 47.8705C44.2645 45.6123 48.579 43.7764 48.5974 43.758C48.6157 43.758 52.9485 45.6123 58.236 47.8705Z" fill="#484F59"/>
<path d="M45.7518 50.9366C41.474 51.6893 37.6186 54.2412 35.085 57.9498C32.2209 62.1541 31.615 68.1026 33.5244 72.9862C34.7178 76.0522 37.6186 79.4119 40.4459 81.0092C48.8545 85.7459 59.301 82.4596 63.3217 73.8491C64.3682 71.6276 64.6436 70.4158 64.7537 67.6987C64.919 63.9534 64.1662 61.0893 62.3119 58.2069C60.1272 54.8287 56.5287 52.2034 52.6916 51.1936C51.2779 50.8264 47.2022 50.6795 45.7518 50.9366ZM51.7002 54.2229C56.5104 55.4346 60.2557 59.2166 61.4123 64.0819C61.8897 66.028 61.7244 69.0573 61.0635 71.0217C59.1541 76.6397 53.6463 80.4033 47.8998 80.0362C40.3908 79.5405 34.6443 72.7291 35.6174 65.4588C36.6639 57.6194 44.2096 52.3319 51.7002 54.2229Z" fill="#2BA84A"/>
<path d="M54.0868 59.0881C53.5544 59.2717 52.4161 60.2814 49.8458 62.8518L46.3575 66.34L45.1641 65.1283C43.7872 63.7146 43.1629 63.4025 41.8227 63.4025C40.0235 63.4025 38.5731 64.6326 38.4079 66.3217C38.2243 68.2127 38.3344 68.3779 41.4555 71.5541C43.0528 73.1514 44.595 74.5834 44.9254 74.7119C45.7149 75.0424 47.2571 75.0424 47.9915 74.6936C48.8727 74.2713 58.3094 64.7428 58.6583 63.9166C59.4661 61.9338 58.3829 59.5471 56.4001 58.9963C55.5004 58.7576 54.9497 58.776 54.0868 59.0881ZM55.8126 62.3377C55.8126 62.6314 46.743 71.8479 46.4493 71.8479C46.0637 71.8479 41.4922 67.2397 41.4922 66.8541C41.4922 66.1564 42.2083 66.5787 43.879 68.2678C45.7333 70.1221 46.2657 70.3975 47.1286 69.9385C47.404 69.7916 49.3684 67.9373 51.4797 65.826C54.968 62.301 55.8126 61.6217 55.8126 62.3377Z" fill="#2BA84A"/>
<path d="M68.2052 4.98306C66.6447 5.62563 65.2861 6.56196 64.1111 7.75532C61.9263 9.95845 60.9716 12.0698 60.8064 14.9706C60.6411 18.1467 61.5408 20.4417 62.9177 20.4417C63.6154 20.4417 65.5615 19.2667 66.663 18.1834C68.3521 16.5127 69.0314 14.8788 69.6005 11.1151C69.8208 9.71978 70.1513 8.14087 70.3349 7.59009C70.8857 6.01118 70.7572 5.3686 69.8208 4.8729C69.3068 4.59751 69.1048 4.59751 68.2052 4.98306ZM66.4611 11.0967C66.0939 13.3733 65.6165 14.6401 64.6986 15.6131L63.8724 16.4944L63.9458 15.0991C64.0009 14.0342 64.1478 13.41 64.5701 12.5104C65.0658 11.4639 66.406 9.68306 66.5712 9.84829C66.6079 9.88501 66.5529 10.4358 66.4611 11.0967Z" fill="#484F59"/>
</svg>
