<svg width="82" height="82" viewBox="0 0 82 82" fill="none" xmlns="http://www.w3.org/2000/svg">
<g clip-path="url(#clip0_45_308)">
<path d="M63.0218 1.51208H18.4718C16.235 1.51208 14.4218 3.32533 14.4218 5.56209V76.0321C14.4218 78.2688 16.235 80.0821 18.4718 80.0821H63.0218C65.2585 80.0821 67.0718 78.2688 67.0718 76.0321V5.56209C67.0718 3.32533 65.2585 1.51208 63.0218 1.51208Z" stroke="#484F59" stroke-width="3" stroke-miterlimit="10"/>
<path d="M21.6874 9.10987C22.1348 9.10987 22.4974 8.74722 22.4974 8.29987C22.4974 7.85252 22.1348 7.48987 21.6874 7.48987C21.2401 7.48987 20.8774 7.85252 20.8774 8.29987C20.8774 8.74722 21.2401 9.10987 21.6874 9.10987Z" stroke="#484F59" stroke-width="3" stroke-miterlimit="10"/>
<path d="M59.806 9.10987C60.2533 9.10987 60.616 8.74722 60.616 8.29987C60.616 7.85252 60.2533 7.48987 59.806 7.48987C59.3586 7.48987 58.996 7.85252 58.996 8.29987C58.996 8.74722 59.3586 9.10987 59.806 9.10987Z" stroke="#484F59" stroke-width="3" stroke-miterlimit="10"/>
<path d="M21.6874 74.2339C22.1348 74.2339 22.4974 73.8712 22.4974 73.4239C22.4974 72.9765 22.1348 72.6139 21.6874 72.6139C21.2401 72.6139 20.8774 72.9765 20.8774 73.4239C20.8774 73.8712 21.2401 74.2339 21.6874 74.2339Z" stroke="#484F59" stroke-width="3" stroke-miterlimit="10"/>
<path d="M59.806 74.2339C60.2533 74.2339 60.616 73.8712 60.616 73.4239C60.616 72.9765 60.2533 72.6139 59.806 72.6139C59.3586 72.6139 58.996 72.9765 58.996 73.4239C58.996 73.8712 59.3586 74.2339 59.806 74.2339Z" stroke="#484F59" stroke-width="3" stroke-miterlimit="10"/>
<path d="M28.5967 47.6821H32.6467" stroke="#484F59" stroke-width="3" stroke-miterlimit="10"/>
<path d="M28.5967 40.3921H32.6467" stroke="#484F59" stroke-width="3" stroke-miterlimit="10"/>
<path d="M28.5967 33.1022H32.6467" stroke="#484F59" stroke-width="3" stroke-miterlimit="10"/>
<path d="M28.5967 25.8121H32.6467" stroke="#484F59" stroke-width="3" stroke-miterlimit="10"/>
<path d="M28.5967 18.5221H32.6467" stroke="#484F59" stroke-width="3" stroke-miterlimit="10"/>
<path d="M45.2017 54.5024V14.5775C45.2593 13.5628 44.9122 12.5667 44.2365 11.8075C43.5608 11.0483 42.6117 10.588 41.5972 10.5275C41.5243 10.5275 41.4838 10.5275 41.419 10.5275H40.9816C39.9373 10.5714 38.9503 11.0174 38.2272 11.7722C37.5041 12.527 37.1008 13.5322 37.1017 14.5775V54.6158C35.7384 55.4348 34.6031 56.5838 33.8005 57.9569C32.9979 59.33 32.5538 60.883 32.509 62.4728C32.5367 64.8176 33.4877 67.0569 35.1556 68.7051C36.8236 70.3534 39.0741 71.2776 41.419 71.2775C42.5774 71.2796 43.7249 71.0535 44.7959 70.6122C45.8669 70.1709 46.8405 69.5229 47.6611 68.7053C48.4817 67.8878 49.1332 66.9165 49.5785 65.8471C50.0237 64.7778 50.254 63.6311 50.2561 62.4728C50.3101 60.7906 49.857 59.131 48.9556 57.7097C48.0543 56.2883 46.7464 55.1708 45.2017 54.5024V54.5024Z" stroke="#484F59" stroke-width="3" stroke-miterlimit="10"/>
<path d="M41.1517 17.3071V61.8571" stroke="#2BA84A" stroke-width="3" stroke-miterlimit="10"/>
<path d="M41.2408 66.0124C43.2539 66.0124 44.8858 64.3805 44.8858 62.3674C44.8858 60.3543 43.2539 58.7224 41.2408 58.7224C39.2277 58.7224 37.5958 60.3543 37.5958 62.3674C37.5958 64.3805 39.2277 66.0124 41.2408 66.0124Z" fill="#2BA84A" stroke="#2BA84A" stroke-width="3" stroke-miterlimit="10"/>
</g>
<defs>
<clipPath id="clip0_45_308">
<rect width="81" height="81" fill="white" transform="translate(0.246704 0.297119)"/>
</clipPath>
</defs>
</svg>
