<svg width="82" height="88" viewBox="0 0 82 88" fill="none" xmlns="http://www.w3.org/2000/svg">
<g clip-path="url(#clip0_45_394)">
<path d="M50.3151 9.8002C50.3151 10.6058 49.2945 11.0085 48.4845 11.0085H37.8411C37.0311 11.0085 35.7351 10.6058 35.7351 9.8002V2.5502C35.9042 2.19513 36.1752 1.89779 36.5139 1.69566C36.8527 1.49353 37.244 1.39565 37.6386 1.41437H48.1686C48.5972 1.38635 49.0252 1.47781 49.4044 1.67847C49.7836 1.87912 50.099 2.18102 50.3151 2.5502V9.8002Z" stroke="#484F59" stroke-width="3" stroke-miterlimit="10"/>
<path d="M23.6337 21.1344L21.3333 17.171" stroke="#484F59" stroke-width="3" stroke-miterlimit="10"/>
<path d="M25.051 15.0364L27.3595 18.9997" stroke="#484F59" stroke-width="3" stroke-miterlimit="10"/>
<path d="M26.744 13.5461C26.8628 13.7528 26.8955 13.9977 26.8349 14.2281C26.7743 14.4585 26.6254 14.6561 26.42 14.7786L20.6852 18.0733C20.4756 18.1933 20.2267 18.226 19.993 18.1641C19.7592 18.1022 19.5596 17.9508 19.4378 17.743L17.2832 14.0374C17.2236 13.9348 17.1849 13.8216 17.1694 13.7041C17.1538 13.5866 17.1617 13.4672 17.1925 13.3528C17.2234 13.2383 17.2766 13.1311 17.3491 13.0371C17.4216 12.9431 17.5121 12.8642 17.6153 12.8049L23.3501 9.51022C23.5597 9.39019 23.8085 9.35755 24.0423 9.41944C24.276 9.48132 24.4756 9.63271 24.5975 9.8405L26.7521 13.5461H26.744Z" stroke="#484F59" stroke-width="3" stroke-miterlimit="10"/>
<path d="M62.5298 20.6591L64.7735 16.7925" stroke="#484F59" stroke-width="3" stroke-miterlimit="10"/>
<path d="M61.1446 14.7061L58.9009 18.5727" stroke="#484F59" stroke-width="3" stroke-miterlimit="10"/>
<path d="M59.2332 13.546C59.1125 13.7545 59.0797 14.002 59.1419 14.2344C59.2041 14.4669 59.3563 14.6654 59.5653 14.7866L65.3001 18.0733C65.509 18.1908 65.7559 18.222 65.9877 18.1602C66.2195 18.0984 66.4176 17.9486 66.5394 17.743L68.694 14.0374C68.7536 13.9348 68.7922 13.8215 68.8078 13.7041C68.8233 13.5866 68.8154 13.4672 68.7846 13.3528C68.7538 13.2383 68.7006 13.131 68.628 13.037C68.5555 12.943 68.4651 12.8642 68.3619 12.8049L62.6271 9.50214C62.4182 9.38463 62.1713 9.35341 61.9395 9.41518C61.7077 9.47695 61.5096 9.62679 61.3878 9.83242L59.2332 13.538V13.546Z" stroke="#484F59" stroke-width="3" stroke-miterlimit="10"/>
<path d="M11.7022 60.5502C9.23476 53.992 8.86285 46.8362 10.6373 40.0599C12.4117 33.2836 16.246 27.2172 21.6166 22.6891C27.0429 18.2047 33.7476 15.5274 40.7854 15.0346C47.8232 14.5417 54.839 16.2583 60.8436 19.9422C66.8482 23.6261 71.5386 29.0914 74.2535 35.5677C76.9684 42.0439 77.5708 49.2042 75.9757 56.0391C74.3624 62.7969 70.69 68.8944 65.4605 73.4983C60.2311 78.1021 53.6997 80.9876 46.759 81.7605L45.949 81.833" stroke="#484F59" stroke-width="3" stroke-miterlimit="10"/>
<path d="M49.1 76.8224C56.1487 75.3666 62.4038 71.3622 66.6549 65.5841C70.906 59.8061 72.8509 52.6652 72.1131 45.5433C71.3753 38.4214 68.0073 31.8249 62.661 27.0302C57.3146 22.2355 50.3699 19.5836 43.1708 19.5877V19.5877C38.5195 19.5867 33.9357 20.6955 29.8044 22.8208C25.6731 24.9462 22.1147 28.0262 19.4279 31.8022C16.7411 35.5783 15.0043 39.9402 14.3634 44.522C13.7224 49.1037 14.1959 53.7714 15.7442 58.1335" stroke="#484F59" stroke-width="3" stroke-miterlimit="10"/>
<path d="M42.944 25.1621V29.0852M31.2395 28.3924L33.2159 31.7918M22.7264 37.0279L26.1446 38.9935M19.6646 48.7327H23.6093M55.094 68.6057L53.15 65.2063M63.6071 59.9863L60.1889 58.0207M66.6689 48.2816H62.6918M63.3802 36.6413L59.9621 38.6068M54.7051 28.1749L52.7368 31.5502M45.1634 46.2274L55.6934 35.4088M46.2163 48.4668C46.2163 47.8726 46.0392 47.2916 45.7072 46.7975C45.3752 46.3034 44.9033 45.9183 44.3513 45.6908C43.7992 45.4634 43.1917 45.4039 42.6056 45.5198C42.0195 45.6358 41.4812 45.922 41.0587 46.3422C40.6361 46.7624 40.3484 47.2978 40.2318 47.8806C40.1152 48.4635 40.1751 49.0677 40.4037 49.6167C40.6324 50.1657 41.0197 50.635 41.5165 50.9652C42.0134 51.2953 42.5975 51.4716 43.1951 51.4716C43.9957 51.4694 44.7629 51.1522 45.3291 50.5891C45.8952 50.0261 46.2142 49.2631 46.2163 48.4668Z" stroke="#484F59" stroke-width="3" stroke-miterlimit="10"/>
<path d="M32.0901 80.2864H45.4551V85.9253H18.3201" stroke="#2BA84A" stroke-width="3" stroke-miterlimit="10"/>
<path d="M38.9751 80.6891V86.328" stroke="#2BA84A" stroke-width="3" stroke-miterlimit="10"/>
<path d="M32.9 74.6475H47.885V80.2863H31.28" stroke="#2BA84A" stroke-width="3" stroke-miterlimit="10"/>
<path d="M40.595 74.2446V79.8835M44.645 74.2446V79.8835" stroke="#2BA84A" stroke-width="3" stroke-miterlimit="10"/>
<path d="M32.8999 69.8141H45.4549V74.6474H32.8999" stroke="#2BA84A" stroke-width="3" stroke-miterlimit="10"/>
<path d="M39.7849 69.4114V73.4392" stroke="#2BA84A" stroke-width="3" stroke-miterlimit="10"/>
<path d="M30.47 64.1752H47.885V69.8141H32.09" stroke="#2BA84A" stroke-width="3" stroke-miterlimit="10"/>
<path d="M43.0249 63.7725V68.6058V63.7725Z" fill="white"/>
<path d="M43.0249 63.7725V68.6058" stroke="#2BA84A" stroke-width="3" stroke-miterlimit="10"/>
<path d="M18.3201 57.7307H45.4551V64.1752H29.6601" stroke="#2BA84A" stroke-width="3" stroke-miterlimit="10"/>
<path d="M39.7849 58.1335V62.9669" stroke="#2BA84A" stroke-width="3" stroke-miterlimit="10"/>
<path d="M33.3049 71.9004C33.3193 74.741 32.4855 77.522 30.9092 79.8908C29.3328 82.2597 27.0849 84.1099 24.4501 85.2069C21.8154 86.3039 18.9125 86.5984 16.1094 86.053C13.3062 85.5076 10.7289 84.147 8.70407 82.1434C6.67924 80.1399 5.29803 77.5837 4.73546 74.7987C4.17289 72.0137 4.45429 69.1253 5.54399 66.4995C6.63369 63.8737 8.48265 61.6287 10.8566 60.049C13.2305 58.4693 16.0225 57.626 18.8788 57.626C22.6551 57.5872 26.2932 59.0377 28.9968 61.6601C31.7004 64.2824 33.2494 67.8631 33.3049 71.6185V71.9004Z" stroke="#2BA84A" stroke-width="3" stroke-miterlimit="10"/>
<path d="M19.5349 77.4669V66.4791L15.8899 70.4586" stroke="#2BA84A" stroke-width="3" stroke-miterlimit="10"/>
<path d="M16.7 77.0641H22.37" stroke="#2BA84A" stroke-width="3" stroke-miterlimit="10"/>
<path d="M45.455 11.8141H40.595V15.0363H45.455V11.8141Z" stroke="#484F59" stroke-width="3" stroke-miterlimit="10"/>
</g>
<defs>
<clipPath id="clip0_45_394">
<rect width="81" height="87" fill="white" transform="translate(0.5 0.133545)"/>
</clipPath>
</defs>
</svg>
