<svg width="74" height="91" viewBox="0 0 74 91" fill="none" xmlns="http://www.w3.org/2000/svg">
<g clip-path="url(#clip0_45_344)">
<path d="M1.23779 50.5923V67.5843L40.2468 89.3211L72.9822 74.3739V57.3891" stroke="#484F59" stroke-width="3" stroke-linejoin="round"/>
<path d="M7.408 47.5828L1.23779 50.5924L40.2468 72.3364L72.9822 57.3892L67.2627 54.1564" stroke="#484F59" stroke-width="3" stroke-linejoin="round"/>
<path d="M40.2913 72.0771V90.0771" stroke="#484F59" stroke-width="3" stroke-linejoin="round"/>
<path d="M11.1027 39.6699L1.23779 44.4795L40.2468 66.2235L72.9822 51.2763L62.8291 45.5379" stroke="#2BA84A" stroke-width="3" stroke-linejoin="round"/>
<path d="M1.23779 17.2996V34.2844L40.2468 56.0284L72.9822 41.0812V24.0964L72.4354 24.0388" stroke="#484F59" stroke-width="3" stroke-linejoin="round"/>
<path d="M1.23779 17.2995L40.2468 39.0435L72.9822 24.0963L33.2785 1.67554L1.23779 17.2995Z" stroke="#484F59" stroke-width="3" stroke-linejoin="round"/>
<path d="M40.2913 38.9572V56.2372" stroke="#484F59" stroke-width="3" stroke-linejoin="round"/>
</g>
<defs>
<clipPath id="clip0_45_344">
<rect width="73.8947" height="90" fill="white" transform="translate(0.0185547 0.797119)"/>
</clipPath>
</defs>
</svg>
