<svg width="57" height="57" viewBox="0 0 57 57" fill="none" xmlns="http://www.w3.org/2000/svg">
<path d="M5.39932 2.39121C3.77393 2.78496 2.58271 3.99902 2.2376 5.60684C2.05947 6.42715 2.05947 49.8928 2.2376 50.7131C2.59385 52.3646 3.86299 53.6115 5.54404 53.9615C6.379 54.1365 50.6208 54.1365 51.4558 53.9615C53.1368 53.6115 54.406 52.3646 54.7622 50.7131C54.9403 49.8928 54.9403 6.42715 54.7622 5.60684C54.406 3.95527 53.1368 2.7084 51.4558 2.3584C50.5651 2.17246 6.16748 2.20527 5.39932 2.39121ZM27.3866 15.8006V27.0662H15.9198H4.45303V16.5662C4.45303 6.4709 4.46416 6.04434 4.66455 5.65059C4.89834 5.20215 5.13213 4.97246 5.62197 4.7209C5.92256 4.56778 7.11377 4.5459 16.6769 4.53496H27.3866V15.8006ZM51.4112 4.74277C51.9233 4.99434 52.1571 5.2459 52.3798 5.7709C52.5245 6.1209 52.5468 7.46621 52.5468 16.6209V27.0662H41.08H29.6132V15.8006V4.53496H40.3007C50.5763 4.53496 51.0105 4.5459 51.4112 4.74277ZM27.3866 40.5193V51.785H16.6991C6.42354 51.785 5.98936 51.774 5.58857 51.5771C5.121 51.3365 4.88721 51.1068 4.63115 50.6146C4.47529 50.2975 4.45303 49.2256 4.45303 39.7537V29.2537H15.9198H27.3866V40.5193ZM52.5468 39.699C52.5468 48.8537 52.5245 50.199 52.3798 50.549C52.1571 51.074 51.9233 51.3256 51.4112 51.5771C51.0105 51.774 50.5763 51.785 40.3007 51.785H29.6132V40.5193V29.2537H41.08H52.5468V39.699Z" fill="#484F59"/>
<path d="M15.8529 8.89895C15.3074 9.22707 15.2518 9.5552 15.2518 12.4755V15.1443H12.5242C9.47383 15.1443 9.16211 15.1989 8.85039 15.8005C8.59434 16.2818 8.70567 16.8068 9.13985 17.1568L9.48496 17.4411H12.3572H15.2406L15.274 20.3505L15.3074 23.2599L15.6748 23.5771C16.0756 23.9271 16.532 23.9818 17.0219 23.7411C17.5563 23.4677 17.5897 23.2271 17.5897 20.2302V17.4411H20.4285C23.5234 17.4411 23.7684 17.3974 24.0244 16.8396C24.2471 16.3583 24.1803 15.9427 23.8352 15.5599L23.5123 15.1989L20.551 15.1661L17.5897 15.1333V12.3005V9.45676L17.2891 9.12864C16.8883 8.69114 16.3316 8.60363 15.8529 8.89895Z" fill="#248232"/>
<path d="M33.6545 15.2211C33.2982 15.2867 32.8418 15.8664 32.8418 16.2492C32.8418 16.6977 33.0979 17.157 33.4541 17.3102C33.6656 17.4086 35.5248 17.4414 40.6348 17.4414H47.5148L47.86 17.157C48.2941 16.807 48.4055 16.282 48.1494 15.8008C47.8043 15.1336 47.8934 15.1445 40.5568 15.1555C36.8941 15.1664 33.7881 15.1992 33.6545 15.2211Z" fill="#484F59"/>
<path d="M11.2219 34.4602C10.8211 34.668 10.6875 34.9305 10.6875 35.4992C10.6875 35.9586 10.7209 36.0023 12.7471 37.993L14.7955 40.0273L12.7471 42.0617L10.6875 44.0852V44.5883C10.6875 45.2883 11.0771 45.6602 11.7785 45.6602H12.2906L14.3502 43.6367L16.4209 41.6242L18.4916 43.6367L20.5512 45.6602H21.0855C21.6645 45.6602 22.0875 45.3648 22.2211 44.8508C22.3658 44.2711 22.1543 43.9867 20.117 41.9633L18.0908 39.9727L20.1504 37.9492C22.21 35.9258 22.21 35.9258 22.21 35.4336C22.21 34.7445 21.798 34.3398 21.0967 34.3398C20.5957 34.3398 20.5957 34.3398 18.5361 36.3633L16.4766 38.3867L14.5061 36.4508C13.415 35.3898 12.4131 34.4711 12.2795 34.4055C11.9566 34.2414 11.5893 34.2633 11.2219 34.4602Z" fill="#484F59"/>
<path d="M39.7219 34.9414C39.4102 35.2477 39.3879 35.3352 39.4436 35.7945C39.5104 36.418 39.9 36.8008 40.4678 36.8008C41.0244 36.8008 41.3807 36.6039 41.5922 36.1664C41.7369 35.8492 41.7481 35.718 41.6479 35.368C41.4809 34.832 41.158 34.6133 40.5457 34.6133C40.1561 34.6133 40.0002 34.6789 39.7219 34.9414Z" fill="#248232"/>
<path d="M33.3649 39.0538C32.7637 39.371 32.6635 40.2131 33.1645 40.76L33.4874 41.121L40.3452 41.1538C47.9044 41.1866 47.793 41.1975 48.1493 40.5194C48.4053 40.0381 48.294 39.5131 47.8598 39.1631L47.5147 38.8788H40.6012C34.634 38.8897 33.6321 38.9116 33.3649 39.0538Z" fill="#248232"/>
<path d="M40.2229 43.221C39.8666 43.2866 39.4102 43.8663 39.4102 44.2491C39.4102 45.2554 40.5123 45.8023 41.2805 45.1679C41.9262 44.6429 41.7926 43.6148 41.0355 43.3085C40.8129 43.221 40.6014 43.1554 40.5568 43.1554C40.5123 43.1663 40.3564 43.1991 40.2229 43.221Z" fill="#248232"/>
</svg>
