<svg width="51" height="53" viewBox="0 0 51 53" fill="none" xmlns="http://www.w3.org/2000/svg">
<g clip-path="url(#clip0_80_135)">
<path d="M5.31912 0.332813C5.35896 0.434376 5.83709 1.64297 6.3949 3.02422L7.39099 5.53281L7.13201 6.62969C6.3949 9.79844 5.80721 14.2977 5.45857 19.457C5.2992 21.8336 5.2992 30.4461 5.45857 32.8633C5.79724 37.9109 6.40486 42.5727 7.13201 45.6906L7.39099 46.7875L6.3949 49.2961C5.83709 50.6773 5.35896 51.8859 5.31912 51.9773C5.25935 52.15 6.26541 52.1602 25.5 52.1602C41.6566 52.1602 45.7306 52.1297 45.6908 52.0281C45.6709 51.9672 45.1927 50.7586 44.625 49.3469L43.609 46.7875L43.8679 45.6906C44.5951 42.5727 45.2027 37.9008 45.5414 32.8633C45.7008 30.3953 45.7008 21.925 45.5414 19.457C45.2027 14.4195 44.5951 9.74766 43.8679 6.62969L43.609 5.53281L44.625 2.97344C45.1927 1.56172 45.6709 0.353127 45.6908 0.282032C45.7306 0.190628 41.6566 0.160156 25.5 0.160156C6.26541 0.160156 5.25935 0.170315 5.31912 0.332813ZM13.8258 2.66875C13.8855 3.05469 14.3935 3.41016 14.9115 3.41016C15.2701 3.41016 15.4095 3.34922 15.6486 3.11563C15.808 2.95312 15.9375 2.71953 15.9375 2.60781C15.9375 2.40469 15.9873 2.39453 16.9734 2.39453C17.9994 2.39453 18.0094 2.39453 18.0691 2.6586C18.3181 3.66406 19.9318 3.66406 20.1808 2.6586C20.2406 2.39453 20.2506 2.39453 21.2765 2.39453C22.2627 2.39453 22.3125 2.40469 22.3125 2.60781C22.3125 2.71953 22.442 2.95312 22.6013 3.11563C22.8404 3.34922 22.9799 3.41016 23.3385 3.41016C23.8564 3.41016 24.3644 3.05469 24.4242 2.66875C24.4541 2.45547 24.4939 2.44531 25.5 2.44531C26.506 2.44531 26.5459 2.45547 26.5758 2.66875C26.6355 3.05469 27.1435 3.41016 27.6615 3.41016C28.0201 3.41016 28.1595 3.34922 28.3986 3.11563C28.558 2.95312 28.6875 2.71953 28.6875 2.60781C28.6875 2.40469 28.7373 2.39453 29.7234 2.39453C30.7494 2.39453 30.7594 2.39453 30.8191 2.6586C31.0681 3.66406 32.6818 3.66406 32.9308 2.6586C32.9906 2.39453 33.0006 2.39453 34.0265 2.39453C35.0127 2.39453 35.0625 2.40469 35.0625 2.60781C35.0625 2.71953 35.192 2.95312 35.3513 3.11563C35.5904 3.34922 35.7299 3.41016 36.0885 3.41016C36.6064 3.41016 37.1144 3.05469 37.1742 2.66875C37.2041 2.44531 37.2041 2.44531 39.8238 2.41484L42.4336 2.39453L42.3041 2.71953C42.2343 2.90234 41.9554 3.61328 41.6765 4.29375L41.1884 5.54297H25.5H9.8115L9.32342 4.29375C9.04451 3.61328 8.7656 2.90234 8.69588 2.71953L8.56638 2.39453L11.1762 2.41484C13.7959 2.44531 13.7959 2.44531 13.8258 2.66875ZM41.8857 8.00078C42.2842 9.80859 43.1308 16.0039 43.1308 17.182V17.4258H39.1365H35.1422L34.3254 16.6438C29.3648 11.8703 21.6351 11.8703 16.6746 16.6438L15.8578 17.4258H11.8635H7.86912V17.182C7.86912 15.9938 8.70584 9.83907 9.11424 8.00078L9.16404 7.77734H25.5H41.8359L41.8857 8.00078ZM26.6953 15.3945C28.3388 15.5977 30.0521 16.2477 31.4467 17.1922C32.2037 17.7 33.3791 18.8375 33.9867 19.6602C34.6043 20.4828 35.4908 22.3109 35.7498 23.3063C36.2279 25.0836 36.2279 27.2367 35.7498 29.0141C35.4908 30.0094 34.6043 31.8375 33.9867 32.6602C31.347 36.1945 26.8347 37.7789 22.701 36.6109C21.8244 36.3672 20.3601 35.6766 19.5533 35.1281C18.7963 34.6203 17.6209 33.4828 17.0133 32.6602C16.3957 31.8375 15.5092 30.0094 15.2502 29.0141C14.5828 26.5359 14.8119 23.9461 15.8877 21.6203C16.4554 20.3914 16.9336 19.6703 17.7803 18.7563C18.7365 17.7203 19.5832 17.0906 20.8681 16.4508C22.8404 15.4758 24.6533 15.1406 26.6953 15.3945ZM14.2441 19.7109C14.2441 19.7414 14.1146 20.0258 13.9553 20.3508C13.5568 21.1531 13.1086 22.4938 12.8894 23.5195C12.6304 24.7383 12.6304 27.582 12.8894 28.8008C13.1086 29.8266 13.5568 31.1672 13.9553 31.9695C14.1146 32.2945 14.2441 32.5789 14.2441 32.6094C14.2441 32.6398 12.7699 32.6602 10.967 32.6602H7.68982L7.61013 31.2586C7.51053 29.4609 7.51053 22.8594 7.61013 21.0516L7.68982 19.6602H10.967C12.7699 19.6602 14.2441 19.6805 14.2441 19.7109ZM43.3898 21.0516C43.4297 21.8234 43.4695 24.1188 43.4695 26.1602C43.4695 28.2016 43.4297 30.4969 43.3898 31.2586L43.3101 32.6602H40.033C38.2301 32.6602 36.7558 32.6398 36.7558 32.6094C36.7558 32.5789 36.8853 32.2945 37.0447 31.9695C37.4431 31.1672 37.8914 29.8266 38.1105 28.8008C38.25 28.1406 38.2998 27.5109 38.2998 26.1602C38.2998 24.8094 38.25 24.1797 38.1105 23.5195C37.8914 22.4938 37.4431 21.1531 37.0447 20.3508C36.8853 20.0258 36.7558 19.7414 36.7558 19.7109C36.7558 19.6805 38.2301 19.6602 40.033 19.6602H43.3101L43.3898 21.0516ZM16.6746 35.6766C17.6607 36.6313 19.1648 37.6469 20.3402 38.1648C25.1115 40.257 30.5701 39.2922 34.3254 35.6766L35.1422 34.8945H39.1365H43.1308V35.1383C43.1308 36.3164 42.2842 42.5117 41.8857 44.3195L41.8359 44.543H25.5H9.16404L9.11424 44.3094C8.7158 42.5117 7.86912 36.3164 7.86912 35.1383V34.8945H11.8635H15.8578L16.6746 35.6766ZM41.6765 48.0266C41.9554 48.707 42.2343 49.418 42.3041 49.6008L42.4336 49.9258L39.8238 49.9055C37.2041 49.875 37.2041 49.875 37.1742 49.6516C37.1144 49.2656 36.6064 48.9102 36.0885 48.9102C35.7299 48.9102 35.5904 48.9711 35.3513 49.2047C35.192 49.3672 35.0625 49.6008 35.0625 49.7125C35.0625 49.9156 35.0127 49.9258 34.0265 49.9258C33.0006 49.9258 32.9906 49.9258 32.9308 49.6617C32.6818 48.6563 31.0681 48.6563 30.8191 49.6617C30.7594 49.9258 30.7494 49.9258 29.7234 49.9258C28.7373 49.9258 28.6875 49.9156 28.6875 49.7125C28.6875 49.6008 28.558 49.3672 28.3986 49.2047C28.1595 48.9711 28.0201 48.9102 27.6615 48.9102C27.1435 48.9102 26.6355 49.2656 26.5758 49.6516C26.5459 49.8648 26.506 49.875 25.5 49.875C24.4939 49.875 24.4541 49.8648 24.4242 49.6516C24.3644 49.2656 23.8564 48.9102 23.3385 48.9102C22.9799 48.9102 22.8404 48.9711 22.6013 49.2047C22.442 49.3672 22.3125 49.6008 22.3125 49.7125C22.3125 49.9156 22.2627 49.9258 21.2765 49.9258C20.2506 49.9258 20.2406 49.9258 20.1808 49.6617C19.9318 48.6563 18.3181 48.6563 18.0691 49.6617C18.0094 49.9258 17.9994 49.9258 16.9734 49.9258C15.9873 49.9258 15.9375 49.9156 15.9375 49.7125C15.9375 49.6008 15.808 49.3672 15.6486 49.2047C15.4095 48.9711 15.2701 48.9102 14.9115 48.9102C14.3935 48.9102 13.8855 49.2656 13.8258 49.6516C13.7959 49.875 13.7959 49.875 11.1762 49.9055L8.56638 49.9258L8.69588 49.6008C8.7656 49.418 9.04451 48.707 9.32342 48.0164L9.8115 46.7773H25.5H41.1884L41.6765 48.0266Z" fill="#484F59"/>
<path d="M18.4477 23.164C18.0692 23.489 17.9596 24.007 18.1788 24.4742C18.4975 25.1648 18.2784 25.1445 25.5001 25.1445C32.7218 25.1445 32.5026 25.1648 32.8214 24.4742C33.0405 24.007 32.9309 23.489 32.5524 23.164L32.2536 22.9101H25.5001H18.7466L18.4477 23.164Z" fill="#248232"/>
<path d="M21.8343 27.3281C21.1868 27.6125 21.0474 28.5977 21.5853 29.1461L21.8442 29.4102H25.4999H29.1556L29.4146 29.1461C29.9624 28.5875 29.813 27.6125 29.1456 27.3281C28.6376 27.1047 22.3224 27.1148 21.8343 27.3281Z" fill="#248232"/>
</g>
<defs>
<clipPath id="clip0_80_135">
<rect width="51" height="52" fill="white" transform="translate(0 0.160156)"/>
</clipPath>
</defs>
</svg>
