<svg width="58" height="57" viewBox="0 0 58 57" fill="none" xmlns="http://www.w3.org/2000/svg">
<g clip-path="url(#clip0_80_127)">
<path d="M27.1108 49.1603L26.4077 54.8536H31.4702L30.6733 48.5069L31.8452 46.3136L28.8452 43.6069L25.7046 46.7336L27.1108 49.1603Z" fill="#248232"/>
<path d="M26.0444 0.39006C25.5991 0.663498 25.4098 0.871311 25.254 1.26506C25.1649 1.48381 24.9756 1.61506 24.4524 1.801C21.4577 2.86193 19.0196 4.85256 17.3608 7.59787C16.537 8.95412 15.9135 10.7916 15.6909 12.5416C15.6129 13.2088 15.5239 13.4604 15.368 13.5697C15.2456 13.6572 15.034 13.9088 14.8893 14.1276C14.6555 14.5104 14.6332 14.6635 14.6332 16.0197C14.6332 17.6494 14.7334 17.9885 15.3457 18.4369L15.6686 18.6666L15.1008 19.2354C12.8854 21.4119 13.3752 25.0979 16.0805 26.6401C16.3922 26.8151 16.8264 27.0119 17.0602 27.0666L17.4721 27.1869V28.0291C17.4721 28.4994 17.55 29.1776 17.6391 29.5276C17.9508 30.6869 18.3739 31.2338 20.3555 32.9619L22.1813 34.5479L22.1034 35.3901C22.07 35.8494 21.9364 36.6151 21.8139 37.0854C21.569 38.0151 20.979 39.3057 20.7786 39.3713C15.0786 41.001 12.7741 42.5541 11.0485 45.9338C10.1022 47.7822 9.35629 50.3744 9.06684 52.8572C8.87758 54.476 8.89985 54.8151 9.2895 55.4057C9.82387 56.226 8.17622 56.1604 28.9389 56.1604C49.7016 56.1604 48.054 56.226 48.5883 55.4057C48.978 54.8151 49.0002 54.476 48.811 52.8572C48.3879 49.2916 47.1299 45.8463 45.5268 43.8666C44.0461 42.0401 41.6749 40.6838 38.2348 39.6994L37.0213 39.3494L36.654 38.7041C36.242 37.9822 35.8747 36.5713 35.7745 35.3572L35.6965 34.5369L37.4778 33.0057C39.8825 30.9166 40.2721 30.2822 40.3834 28.2369C40.4391 27.1979 40.4391 27.176 40.7286 27.1104C41.3297 26.9682 42.3094 26.3666 42.8549 25.7979C44.6584 23.9276 44.625 21.0619 42.777 19.2463L42.187 18.6666L42.4764 18.4916C43.0887 18.0979 43.1889 17.7479 43.1889 16.0963C43.1889 14.4447 43.0776 14.0182 42.5543 13.6135C42.3206 13.4385 42.2649 13.2526 42.1758 12.5526C41.7973 9.46819 40.4725 6.876 38.1569 4.6885C36.7541 3.36506 35.2512 2.44631 33.4254 1.801C32.9913 1.64787 32.7018 1.48381 32.6684 1.35256C32.6239 1.23225 32.468 0.991623 32.3122 0.816624C31.7778 0.193184 31.6331 0.160374 28.9166 0.160374C26.5788 0.160374 26.4118 0.17131 26.0444 0.39006ZM30.8315 5.57444C30.8315 8.85569 30.8426 9.03069 31.0541 9.2385C31.5551 9.73069 32.3233 9.62131 32.635 9.00881C32.8131 8.69162 32.8354 8.30881 32.8354 6.19787C32.8354 4.32756 32.8688 3.76975 32.9801 3.76975C33.0469 3.78069 33.4366 3.93381 33.8373 4.13068L34.561 4.48069L34.6166 7.76194C34.65 9.56662 34.6946 11.0541 34.7057 11.0651C34.895 11.2619 35.485 11.4369 35.7856 11.3822C36.5204 11.2401 36.5538 11.1307 36.6206 8.44006L36.6762 6.03381L37.3998 6.79943C37.8006 7.226 38.3795 7.99162 38.6913 8.50568C39.337 9.56662 40.0161 11.4588 40.1385 12.4869L40.2165 13.176H28.95H17.6948V12.8151C17.6948 12.2682 18.1178 10.726 18.5297 9.7635C18.9639 8.75725 19.9213 7.33537 20.6672 6.55881L21.2016 6.01194L21.2573 8.451L21.3129 10.901L21.6247 11.1635C22.1034 11.5682 22.8715 11.4588 23.1387 10.9447C23.2166 10.7916 23.2723 9.63225 23.2946 7.60881L23.3168 4.49162L24.0405 4.14162C24.4413 3.94475 24.8309 3.78069 24.9088 3.78069C25.009 3.76975 25.0424 4.3385 25.0424 6.25256C25.0424 8.52756 25.0647 8.77912 25.2651 9.09631C25.5323 9.53381 26.0778 9.66506 26.5788 9.4135C26.7569 9.326 26.935 9.16193 26.9795 9.07444C27.0129 8.976 27.0463 7.36818 27.0463 5.50881V2.12912H28.9389H30.8315V5.57444ZM41.185 16.0197V16.8947H28.9389H16.6928V16.0197V15.1447H28.9389H41.185V16.0197ZM38.4018 20.4494C38.4018 22.0026 38.4129 22.0572 38.6801 22.3088C38.8694 22.5057 39.0698 22.5822 39.3704 22.5822C40.1608 22.5713 40.4057 22.1885 40.4057 20.9526C40.4057 20.4604 40.4391 20.0666 40.4836 20.0666C40.6729 20.0666 41.4188 20.6682 41.6637 21.0291C42.4319 22.1557 42.3206 23.4901 41.3854 24.4307C40.8956 24.9229 40.3055 25.1963 39.5151 25.3057C38.4909 25.4369 38.4686 25.4807 38.4018 27.3729C38.3127 29.6916 38.4463 29.4947 34.9061 32.5463C33.3141 33.9244 31.7778 35.1604 31.4995 35.3026C31.0319 35.5213 30.8538 35.5432 28.9389 35.5432C27.1131 35.5432 26.8237 35.5213 26.4118 35.3244C26.1557 35.2041 24.6194 33.9682 23.0051 32.5791C19.4204 29.4947 19.554 29.6807 19.4983 27.4276C19.4538 25.9619 19.4426 25.8635 19.1866 25.6119C18.9973 25.426 18.7524 25.3276 18.3071 25.2838C16.1028 25.0651 14.945 22.626 16.2475 20.9635C16.5036 20.6463 17.2272 20.0666 17.3831 20.0666C17.4276 20.0666 17.4721 20.4604 17.4721 20.9416C17.4721 21.8604 17.6391 22.3854 17.9731 22.5166C18.385 22.6697 18.9305 22.5822 19.1977 22.3088C19.4649 22.0572 19.476 22.0026 19.476 20.4494V18.8635H28.9389H38.4018V20.4494ZM25.4321 37.0854C26.2782 37.4682 26.9907 37.5666 28.9389 37.5666C29.8963 37.5666 30.954 37.5119 31.2768 37.4572C32.045 37.3151 32.9133 36.9213 33.4032 36.4947L33.7928 36.1557L33.9264 36.9213C34.0823 37.8291 34.5053 39.0432 34.895 39.7432L35.1844 40.2463L34.8727 40.4979C34.3717 40.9026 33.0469 41.4822 32.1006 41.7338C30.3416 42.1713 27.5362 42.1713 25.7772 41.7338C24.8198 41.4822 23.5061 40.9026 22.994 40.4869C22.6823 40.2463 22.6823 40.2244 22.8493 39.9619C23.2055 39.4369 23.7176 38.0369 23.9069 37.1182L24.0961 36.1666L24.4858 36.5057C24.6973 36.6807 25.1204 36.9541 25.4321 37.0854ZM22.0588 42.2588C23.1832 43.0026 24.5637 43.5604 25.9108 43.8119L26.6233 43.9432L25.4209 45.1244L24.2075 46.3166L22.4596 44.5994L20.7118 42.8932L21.0457 42.4119C21.235 42.1494 21.4243 41.9416 21.4799 41.9416C21.5356 41.9416 21.7916 42.0838 22.0588 42.2588ZM36.8321 42.401L37.1661 42.8713L35.4182 44.5885L33.6704 46.3166L32.4791 45.1463L31.2768 43.976L32.4903 43.6807C33.6815 43.3963 34.9284 42.8604 35.7856 42.2697C36.0305 42.0947 36.2866 41.9526 36.3645 41.9526C36.4424 41.9416 36.6428 42.1494 36.8321 42.401ZM17.3942 43.9869C15.8913 46.0651 15.6352 46.5682 15.7465 47.1916C15.7911 47.3994 16.4034 48.7994 17.1047 50.3088C17.8172 51.8072 18.5075 53.3057 18.6522 53.6119L18.9194 54.1916H14.9338H10.9483L10.9817 53.776C11.1821 51.7307 11.8166 49.1166 12.518 47.5197C13.5088 45.2447 14.8225 43.9213 17.294 42.7072C18.0288 42.3463 18.6633 42.051 18.7079 42.051C18.7635 42.051 18.1623 42.926 17.3942 43.9869ZM40.2721 42.5432C41.3075 43.0244 42.2872 43.626 43.111 44.2822C44.0461 45.0369 45.1706 46.8526 45.7829 48.6135C46.3506 50.2322 46.8627 52.6713 46.8627 53.7213V54.1916H42.9106H38.9696L39.337 53.3932C39.5373 52.9666 40.2276 51.4682 40.8844 50.0901C41.5301 48.701 42.0979 47.3994 42.1313 47.1916C42.1758 46.9619 42.1424 46.6229 42.0534 46.3713C41.9309 46.0322 39.927 43.1447 39.1477 42.1822C38.9696 41.9635 39.1477 42.0182 40.2721 42.5432ZM23.6954 48.2854C24.1629 48.4057 24.6082 48.3619 25.1649 48.1322C25.3096 48.0666 25.4432 48.176 25.677 48.5041L25.9998 48.9635L25.7438 51.5447C25.6102 52.9776 25.4989 54.1479 25.4989 54.1697C25.4877 54.1807 24.5081 54.1807 23.3168 54.1697L21.1348 54.1369L19.476 50.5822C18.552 48.6354 17.8061 47.0057 17.8061 46.9619C17.8061 46.9291 18.1846 46.3604 18.6522 45.7151L19.4983 44.5447L21.3575 46.3494C22.9272 47.8807 23.2834 48.176 23.6954 48.2854ZM30.0299 45.5838L31.0541 46.601L30.6534 47.1697L30.2415 47.7385H28.9278H27.6141L27.2133 47.1697L26.8237 46.5901L27.8479 45.5838C28.4157 45.026 28.9055 44.5666 28.9389 44.5666C28.9723 44.5666 29.4622 45.026 30.0299 45.5838ZM39.2256 45.7151C39.6932 46.3494 40.0717 46.9072 40.0717 46.9619C40.0717 47.0057 39.3258 48.6463 38.4018 50.5932L36.743 54.1369L34.561 54.1697C33.3698 54.1807 32.3901 54.1807 32.379 54.1697C32.379 54.1479 32.2565 52.9776 32.1229 51.5666L31.8668 48.9963L32.212 48.4932C32.5459 48.001 32.5682 47.9901 32.8243 48.1541C33.1694 48.3838 34.1268 48.3838 34.561 48.1541C34.7502 48.0557 35.6743 47.2026 36.6206 46.2729C37.5668 45.3322 38.3573 44.5666 38.3684 44.5666C38.3795 44.5666 38.7692 45.0807 39.2256 45.7151ZM29.9409 49.9479C29.9409 50.0901 30.0188 50.9104 30.1079 51.7854C30.1969 52.6604 30.2748 53.5572 30.2748 53.776V54.1916H28.9055H27.5362L27.7254 52.1901C27.8368 51.0963 27.9258 50.0901 27.9258 49.9479C27.937 49.7182 27.9815 49.7072 28.9389 49.7072C29.9075 49.7072 29.9409 49.7182 29.9409 49.9479Z" fill="#484F59"/>
<path d="M23.7399 20.7231C23.3168 20.8871 23.1164 21.434 23.1721 22.2652C23.2166 23.1074 23.417 23.4137 23.9848 23.5231C24.3744 23.5887 24.7752 23.4356 25.009 23.1402C25.0869 23.0309 25.1426 22.6043 25.1537 22.0684C25.1537 21.2043 25.1426 21.1715 24.8086 20.8981C24.4524 20.6027 24.1629 20.559 23.7399 20.7231Z" fill="#248232"/>
<path d="M33.2251 20.7449C32.8132 20.9746 32.7353 21.1934 32.7241 22.0574C32.7241 23.0637 32.7687 23.1949 33.1917 23.4137C33.6927 23.6652 34.2382 23.534 34.5054 23.0965C34.7614 22.6918 34.806 21.6746 34.5944 21.2152C34.3606 20.7121 33.6927 20.4824 33.2251 20.7449Z" fill="#248232"/>
<path d="M27.358 25.5352C27.2022 25.6555 27.0463 25.8852 27.0129 26.0492C26.935 26.432 27.1799 27.0117 27.4694 27.1648C27.603 27.2305 28.2598 27.2852 28.9389 27.2852C29.618 27.2852 30.2748 27.2305 30.4084 27.1648C30.5309 27.0992 30.6979 26.8805 30.787 26.6727C30.9205 26.3555 30.9205 26.2461 30.787 25.9289C30.6979 25.7211 30.5309 25.5023 30.4084 25.4367C30.2748 25.3711 29.6069 25.3164 28.9055 25.3164C27.8034 25.3164 27.5918 25.3492 27.358 25.5352Z" fill="#484F59"/>
<path d="M26.6456 28.8164C26.0333 29.057 25.844 29.943 26.3116 30.4023C26.7235 30.807 27.4026 30.9492 28.939 30.9492C30.9985 30.9492 31.8335 30.6102 31.8335 29.7789C31.8335 28.9586 31.2546 28.6195 30.2749 28.8711C29.4622 29.0789 28.3935 29.0789 27.603 28.8711C26.9017 28.6852 26.9573 28.6852 26.6456 28.8164Z" fill="#484F59"/>
<path d="M27.3024 32.1195C26.9795 32.4805 26.9127 32.743 27.0574 33.1586C27.2356 33.7055 27.6141 33.8477 28.9389 33.8477C30.1746 33.8477 30.6422 33.7055 30.7869 33.2789C30.9205 32.8414 30.8537 32.4039 30.5977 32.1414C30.3639 31.8898 30.2748 31.8789 28.9389 31.8789C27.6141 31.8789 27.5139 31.8898 27.3024 32.1195Z" fill="#484F59"/>
</g>
<defs>
<clipPath id="clip0_80_127">
<rect width="57" height="56" fill="white" transform="translate(0.438965 0.160156)"/>
</clipPath>
</defs>
</svg>
