<svg width="150" height="26" viewBox="0 0 150 26" fill="none" xmlns="http://www.w3.org/2000/svg">
<g clip-path="url(#clip0_16_76)">
<path d="M0 0H14.7272C17.1834 0 19.0658 0.600061 20.3745 1.80018C21.6881 2.99535 22.3475 4.4831 22.3475 6.24361C22.3475 7.72641 21.8794 9.00091 20.9432 10.0622C20.3141 10.7664 19.4031 11.3317 18.2001 11.7384C20.0272 12.1698 21.3711 12.9187 22.2368 13.97C23.0974 15.0263 23.5303 16.3504 23.5303 17.9473C23.5303 19.2515 23.2233 20.417 22.6092 21.4584C21.9952 22.4998 21.1546 23.3131 20.0926 23.9231C19.4333 24.295 18.4367 24.5727 17.1079 24.7414C15.3362 24.9695 14.1635 25.0835 13.5796 25.0835H0V0ZM7.93739 9.83902H11.3549C12.583 9.83902 13.4337 9.63073 13.9219 9.21416C14.4 8.79263 14.6366 8.19257 14.6366 7.40902C14.6366 6.68002 14.4 6.10475 13.9219 5.6981C13.4337 5.28153 12.5981 5.0782 11.4103 5.0782H7.93739V9.83902ZM7.93739 19.6929H11.9489C13.3078 19.6929 14.2591 19.4598 14.8128 18.9887C15.3715 18.5176 15.6483 17.8778 15.6483 17.0794C15.6483 16.3355 15.3765 15.7404 14.8228 15.2941C14.2692 14.8428 13.3129 14.6147 11.9287 14.6147H7.93235V19.6929H7.93739ZM27.6777 0H35.5446V9.477L43.794 0H54.248L44.9718 9.46212L54.6608 25.0835H44.9718L39.6114 14.7635L35.5446 18.954V25.0786H27.6777V0ZM65.155 9.66544H69.3578C73.2082 9.66544 76.0671 10.3349 77.9344 11.6789C79.7967 13.0179 80.7278 15.1007 80.7278 17.9274C80.7278 20.2434 79.8722 22.0138 78.1659 23.2437C76.4596 24.4686 74.0135 25.0835 70.8174 25.0835H57.3032V0H78.7347V5.0782H65.155V9.66544ZM65.155 19.6929H69.1816C71.6479 19.6929 72.881 18.8151 72.881 17.0596C72.881 15.5173 71.6479 14.7486 69.1816 14.7486H65.155V19.6929Z" fill="#248232"/>
<path d="M103.825 16.0479C103.825 13.2807 104.771 10.9895 106.669 9.19926C108.572 7.39908 111.133 6.50146 114.36 6.50146C118.054 6.50146 120.843 7.55777 122.73 9.66542C124.245 11.3664 125.005 13.4592 125.005 15.9487C125.005 18.7407 124.064 21.0269 122.181 22.8172C120.304 24.5975 117.702 25.4902 114.375 25.4902C111.41 25.4902 109.014 24.7463 107.187 23.2635C104.948 21.4336 103.825 19.0284 103.825 16.0479ZM110.907 16.0281C110.907 17.6497 111.239 18.8498 111.909 19.6185C112.573 20.3971 113.408 20.7889 114.415 20.7889C115.437 20.7889 116.272 20.4021 116.922 19.6383C117.581 18.8746 117.903 17.6547 117.903 15.9586C117.903 14.3866 117.571 13.2162 116.912 12.4426C116.252 11.6789 115.437 11.292 114.465 11.292C113.434 11.292 112.583 11.6838 111.909 12.4624C111.249 13.246 110.907 14.4362 110.907 16.0281Z" fill="#248232"/>
<path d="M128.412 7.06186H135.635V12.9335L140.92 6.91309H149.617L142.999 13.2807L150 25.0835H142.027L138.293 17.7935L135.635 20.3574V25.0835H128.412V7.06186Z" fill="#248232"/>
<path fill-rule="evenodd" clip-rule="evenodd" d="M96.1697 25.0835H103.528L96.7939 6.91309H89.4353L96.1697 25.0835Z" fill="#248232"/>
<path fill-rule="evenodd" clip-rule="evenodd" d="M90.0594 25.0835H82.7008L89.4353 6.91309H96.7938L90.0594 25.0835Z" fill="#248232"/>
</g>
<defs>
<clipPath id="clip0_16_76">
<rect width="150" height="25.4902" fill="white"/>
</clipPath>
</defs>
</svg>
