<svg width="186" height="32" viewBox="0 0 186 32" fill="none" xmlns="http://www.w3.org/2000/svg">
<g clip-path="url(#clip0_82_184)">
<path d="M0 0H18.2617C21.3074 0 23.6416 0.753307 25.2643 2.25992C26.8933 3.76031 27.7109 5.62802 27.7109 7.83813C27.7109 9.69961 27.1305 11.2996 25.9696 12.6319C25.1895 13.516 24.0598 14.2257 22.5682 14.7362C24.8337 15.2778 26.5001 16.2179 27.5736 17.5377C28.6408 18.8638 29.1776 20.5261 29.1776 22.5307C29.1776 24.1681 28.7969 25.6311 28.0354 26.9385C27.274 28.2459 26.2317 29.2669 24.9148 30.0327C24.0972 30.4996 22.8615 30.8482 21.2138 31.0599C19.0169 31.3463 17.5627 31.4895 16.8387 31.4895H0V0ZM9.84236 12.3517H14.0801C15.603 12.3517 16.6577 12.0903 17.2631 11.5673C17.8561 11.0381 18.1494 10.2848 18.1494 9.30117C18.1494 8.38599 17.8561 7.66381 17.2631 7.15331C16.6577 6.63035 15.6217 6.3751 14.1488 6.3751H9.84236V12.3517ZM9.84236 24.7222H14.8166C16.5017 24.7222 17.6813 24.4296 18.3678 23.8381C19.0606 23.2467 19.4039 22.4436 19.4039 21.4412C19.4039 20.5074 19.0668 19.7603 18.3803 19.2C17.6938 18.6335 16.508 18.3471 14.7916 18.3471H9.83612V24.7222H9.84236ZM34.3203 0H44.0753V11.8973L54.3046 0H67.2676L55.7651 11.8786L67.7794 31.4895H55.7651L49.1182 18.5339L44.0753 23.7945V31.4833H34.3203V0ZM80.7922 12.1339H86.0036C90.7781 12.1339 94.3231 12.9743 96.6386 14.6615C98.9479 16.3424 100.102 18.9572 100.102 22.5058C100.102 25.4132 99.0415 27.6358 96.9257 29.1798C94.81 30.7175 91.7767 31.4895 87.8136 31.4895H71.056V0H97.631V6.3751H80.7922V12.1339ZM80.7922 24.7222H85.7852C88.8434 24.7222 90.3725 23.6202 90.3725 21.4163C90.3725 19.4802 88.8434 18.5152 85.7852 18.5152H80.7922V24.7222Z" fill="white"/>
<path d="M128.743 20.1465C128.743 16.6726 129.917 13.7964 132.27 11.5489C134.629 9.28896 137.806 8.16211 141.806 8.16211C146.387 8.16211 149.845 9.48818 152.185 12.1341C154.064 14.2695 155.006 16.8967 155.006 20.022C155.006 23.5271 153.839 26.3971 151.505 28.6446C149.177 30.8796 145.95 32.0002 141.825 32.0002C138.149 32.0002 135.178 31.0664 132.912 29.2049C130.135 26.9076 128.743 23.8882 128.743 20.1465ZM137.525 20.1216C137.525 22.1574 137.937 23.6641 138.767 24.629C139.59 25.6065 140.627 26.0983 141.875 26.0983C143.142 26.0983 144.178 25.6127 144.983 24.6539C145.8 23.6952 146.2 22.1637 146.2 20.0345C146.2 18.0609 145.788 16.5917 144.97 15.6205C144.153 14.6617 143.142 14.1761 141.937 14.1761C140.658 14.1761 139.603 14.6679 138.767 15.6454C137.949 16.629 137.525 18.1232 137.525 20.1216Z" fill="white"/>
<path d="M159.232 8.86548H168.188V16.2367L174.741 8.67871H185.526L177.319 16.6725L186 31.4896H176.114L171.483 22.3379L168.188 25.5565V31.4896H159.232V8.86548Z" fill="white"/>
<path fill-rule="evenodd" clip-rule="evenodd" d="M119.25 31.4896H128.375L120.024 8.67871H110.9L119.25 31.4896Z" fill="white"/>
<path fill-rule="evenodd" clip-rule="evenodd" d="M111.674 31.4896H102.549L110.9 8.67871H120.024L111.674 31.4896Z" fill="white"/>
</g>
<defs>
<clipPath id="clip0_82_184">
<rect width="186" height="32" fill="white"/>
</clipPath>
</defs>
</svg>
