<svg width="34" height="43" viewBox="0 0 34 43" fill="none" xmlns="http://www.w3.org/2000/svg">
<path d="M17.0334 0C7.93267 0 0.533447 7.23105 0.533447 16.125C0.533447 28.0172 15.753 42.1602 16.4061 42.7564C16.5866 42.916 16.81 43 17.0334 43C17.2569 43 17.4889 42.916 17.6608 42.7564C18.3139 42.1602 33.5334 28.0172 33.5334 16.125C33.5334 7.23105 26.1342 0 17.0334 0ZM17.0334 25.0861C11.9803 25.0861 7.86392 21.0633 7.86392 16.125C7.86392 11.1867 11.9803 7.16387 17.0334 7.16387C22.0866 7.16387 26.203 11.1867 26.203 16.125C26.203 21.0633 22.0866 25.0861 17.0334 25.0861Z" fill="#FA9241"/>
</svg>
