<svg width="29" height="37" viewBox="0 0 29 37" fill="none" xmlns="http://www.w3.org/2000/svg">
<path d="M14.5 0C6.84707 0 0.625 6.22207 0.625 13.875C0.625 24.1078 13.4232 36.2773 13.9725 36.7904C14.1242 36.9277 14.3121 37 14.5 37C14.6879 37 14.883 36.9277 15.0275 36.7904C15.5768 36.2773 28.375 24.1078 28.375 13.875C28.375 6.22207 22.1529 0 14.5 0ZM14.5 21.5857C10.2508 21.5857 6.78926 18.1242 6.78926 13.875C6.78926 9.62578 10.2508 6.16426 14.5 6.16426C18.7492 6.16426 22.2107 9.62578 22.2107 13.875C22.2107 18.1242 18.7492 21.5857 14.5 21.5857Z" fill="#2BA84A"/>
</svg>
