<svg width="19" height="19" viewBox="0 0 19 19" fill="none" xmlns="http://www.w3.org/2000/svg">
<path fill-rule="evenodd" clip-rule="evenodd" d="M12.9198 11.8003L17.1847 16.0652L16.0651 17.1848L11.8002 12.9199C10.7278 13.7536 9.38015 14.25 7.91659 14.25C4.41878 14.25 1.58325 11.4145 1.58325 7.91671C1.58325 4.4189 4.41878 1.58337 7.91659 1.58337C11.4144 1.58337 14.2499 4.4189 14.2499 7.91671C14.2499 9.38027 13.7535 10.7279 12.9198 11.8003ZM7.91659 12.6667C10.5399 12.6667 12.6666 10.5401 12.6666 7.91671C12.6666 5.29335 10.5399 3.16671 7.91659 3.16671C5.29323 3.16671 3.16659 5.29335 3.16659 7.91671C3.16659 10.5401 5.29323 12.6667 7.91659 12.6667Z" fill="#040F0F"/>
</svg>
