<svg width="15" height="14" viewBox="0 0 15 14" fill="none" xmlns="http://www.w3.org/2000/svg">
<g clip-path="url(#clip0_16_100)">
<path d="M13.4829 0.155891L1.04827 5.80105C1.04827 5.80105 0.458353 6.03223 0.504803 6.46234C0.551253 6.89245 1.02969 7.09137 1.02969 7.09137L4.15577 8.3118L4.16041 8.31718V8.3118L11.6667 2.7903C11.6667 2.7903 12.0987 2.48385 12.0848 2.7903C12.0848 2.7903 12.1637 2.84406 11.9315 3.09675C11.6992 3.34944 6.03234 9.24191 6.03234 9.24191L6.02305 9.35481L11.1233 13.8817C11.9733 14.3118 12.2845 13.414 12.2845 13.414L14.5002 0.4946C14.5002 -0.365615 13.4783 0.155891 13.4829 0.155891Z" fill="#040F0F"/>
<path d="M7.9739 11.086L5.95333 13.2204C5.95333 13.2204 5.7954 13.3602 5.62354 13.2741L6.00907 9.31177" fill="#040F0F"/>
</g>
<defs>
<clipPath id="clip0_16_100">
<rect width="14" height="14" fill="white" transform="translate(0.5)"/>
</clipPath>
</defs>
</svg>
