<svg width="16" height="16" viewBox="0 0 16 16" fill="none" xmlns="http://www.w3.org/2000/svg">
<g clip-path="url(#clip0_16_107)">
<path d="M14.24 8.96292C13.85 12.2074 11.495 12.4148 11.06 12.5629C10.88 12.6222 9.15499 13.0518 7.00999 12.9185L4.66999 15.4814V12.5333H4.65499C1.51999 11.6444 1.62499 8.3407 1.65499 6.60736C1.68499 4.87403 2.01499 3.45181 2.97499 2.48885C4.69999 0.918475 8.23998 1.15551 8.23998 1.15551C11.24 1.17033 12.665 2.07403 12.995 2.38514C14.09 3.33329 14.66 5.61477 14.24 8.96292ZM13.805 1.55551C13.415 1.19996 11.825 0.0295867 8.28499 0.0147719C8.28499 0.0147719 4.11499 -0.23708 2.07499 1.6444C0.949986 2.78514 0.544986 4.45922 0.514986 6.53329C0.469986 8.60736 0.424986 12.5037 4.12999 13.5555V15.1703C4.12999 15.1703 4.09999 15.8222 4.53499 15.9555C5.04499 16.1185 5.34499 15.6148 5.83999 15.0814C6.10999 14.7851 6.48499 14.3555 6.75499 14.0296C9.28999 14.2518 11.24 13.7481 11.465 13.674C11.975 13.5111 14.87 13.1259 15.35 9.2444C15.83 5.2444 15.11 2.69625 13.805 1.55551Z" fill="#040F0F"/>
<path d="M11.54 9.45182C11.54 9.45182 11.06 9.05182 10.835 8.87405C10.61 8.71108 10.265 8.48886 10.07 8.38516C9.72499 8.19256 9.36499 8.31108 9.21499 8.50368L8.91499 8.88886C8.76499 9.08145 8.50999 9.05182 8.44999 9.03701C7.99999 8.91849 7.51999 8.65182 7.02499 8.17775C6.52999 7.70368 6.22999 7.19997 6.12499 6.69627L6.10999 6.66664C6.07999 6.45923 6.10999 6.35553 6.19999 6.20738L6.21499 6.19256C6.42499 5.99997 6.79999 5.77775 6.85999 5.55553C7.00999 5.17034 6.34999 4.37034 6.25999 4.23701C6.25999 4.23701 5.77999 3.61479 5.61499 3.49627C5.43499 3.34812 5.14999 3.25923 4.86499 3.43701H4.84999C4.02499 3.98516 3.73999 4.29627 3.81499 4.77034L3.85999 4.96293C4.27999 6.25182 5.07499 7.64442 6.27499 8.87405C7.45999 10.074 8.74999 10.8 10.01 11.3037C10.34 11.4074 10.685 11.3185 11.03 11.0222C11.3 10.7703 11.51 10.5037 11.66 10.2222C11.825 9.9259 11.765 9.64442 11.54 9.45182Z" fill="#040F0F"/>
<path d="M9.57503 6.60738C9.53003 6.60738 9.48503 6.56294 9.48503 6.51849C9.47003 6.17775 9.38003 5.9259 9.21503 5.74812C9.05003 5.57034 8.81003 5.48146 8.49503 5.46664C8.45003 5.46664 8.40503 5.4222 8.40503 5.36294C8.40503 5.30368 8.45003 5.27405 8.51003 5.27405C8.88503 5.28886 9.17003 5.40738 9.36503 5.61479C9.56003 5.8222 9.66503 6.11849 9.69503 6.50368C9.68003 6.56294 9.63503 6.60738 9.57503 6.60738Z" fill="#040F0F"/>
<path d="M10.505 6.9333C10.445 6.9333 10.415 6.88886 10.415 6.8296C10.43 6.19256 10.235 5.64441 9.84498 5.21478C9.64998 4.99256 9.40998 4.8296 9.13998 4.71108C8.86998 4.59256 8.55498 4.51849 8.19498 4.48886C8.14998 4.48886 8.10498 4.44441 8.10498 4.38515C8.10498 4.32589 8.14998 4.29626 8.20998 4.29626C8.95998 4.35552 9.55998 4.62219 9.97998 5.08145C10.4 5.55552 10.61 6.1333 10.595 6.8296C10.61 6.88886 10.565 6.9333 10.505 6.9333Z" fill="#040F0F"/>
<path d="M11.4649 7.30366C11.4199 7.30366 11.3749 7.25921 11.3749 7.21477C11.3749 6.6518 11.2849 6.13329 11.1199 5.68884C10.9549 5.2444 10.6999 4.85921 10.3699 4.53329C10.0399 4.20736 9.66493 3.95551 9.25993 3.79254C8.85493 3.62958 8.38993 3.54069 7.89493 3.54069C7.84993 3.54069 7.80493 3.49625 7.80493 3.4518C7.80493 3.39254 7.84993 3.36292 7.89493 3.36292C8.92993 3.37773 9.79993 3.71847 10.5049 4.41477C10.8499 4.75551 11.1199 5.17032 11.2999 5.6444C11.4799 6.11847 11.5699 6.6518 11.5699 7.2444C11.5699 7.25921 11.5249 7.30366 11.4649 7.30366Z" fill="#040F0F"/>
</g>
<defs>
<clipPath id="clip0_16_107">
<rect width="15" height="16" fill="white" transform="translate(0.5)"/>
</clipPath>
</defs>
</svg>
