<svg width="17" height="16" viewBox="0 0 17 16" fill="none" xmlns="http://www.w3.org/2000/svg">
<g clip-path="url(#clip0_16_103)">
<path d="M14.164 2.32438C12.66 0.827861 10.66 0 8.532 0C4.148 0 0.564 3.55025 0.564 7.92836C0.564 9.32935 0.932 10.6826 1.62 11.8925L0.5 16L4.724 14.9015C5.892 15.5383 7.204 15.8726 8.532 15.8726C12.916 15.8726 16.5 12.3224 16.5 7.94428C16.5 5.81095 15.668 3.8209 14.164 2.32438ZM8.532 14.5194C7.348 14.5194 6.18 14.201 5.156 13.596L4.916 13.4527L2.42 14.1214L3.092 11.6856L2.932 11.4308C2.276 10.3801 1.924 9.17015 1.924 7.92836C1.908 4.29851 4.884 1.33731 8.532 1.33731C10.308 1.33731 11.956 2.02189 13.22 3.26368C14.468 4.50547 15.156 6.16119 15.156 7.92836C15.156 11.5582 12.18 14.5194 8.532 14.5194ZM12.164 9.58408C11.972 9.48856 10.98 9.01095 10.804 8.94726C10.628 8.88358 10.484 8.85174 10.356 9.04279C10.228 9.23383 9.844 9.6796 9.732 9.82289C9.62 9.95025 9.492 9.96617 9.3 9.87065C9.108 9.77512 8.452 9.56816 7.7 8.88358C7.108 8.35821 6.708 7.70547 6.596 7.51443C6.484 7.32338 6.58 7.21194 6.676 7.11642C6.772 7.0209 6.868 6.87761 6.98 6.76617C7.076 6.65473 7.108 6.57512 7.172 6.43184C7.236 6.30448 7.204 6.17711 7.156 6.08159C7.108 5.98607 6.708 5.01493 6.548 4.61692C6.388 4.23483 6.228 4.28259 6.1 4.28259C5.988 4.28259 5.844 4.28259 5.716 4.28259C5.588 4.28259 5.364 4.33035 5.188 4.53731C5.012 4.72836 4.484 5.22189 4.484 6.19304C4.484 7.16418 5.204 8.10348 5.3 8.24677C5.396 8.37413 6.708 10.3801 8.708 11.2398C9.188 11.4468 9.556 11.5582 9.844 11.6537C10.324 11.797 10.756 11.7811 11.092 11.7333C11.476 11.6697 12.276 11.2557 12.436 10.794C12.596 10.3323 12.596 9.93433 12.548 9.85473C12.5 9.72736 12.372 9.6796 12.164 9.58408Z" fill="#040F0F"/>
</g>
<defs>
<clipPath id="clip0_16_103">
<rect width="16" height="16" fill="white" transform="translate(0.5)"/>
</clipPath>
</defs>
</svg>
